{
  "accessors": [
    {
      "bufferView": 2,
      "componentType": 5126,
      "count": 13730,
      "max": [
        0.6329113841056824,
        0.5,
        0.05633837357163429
      ],
      "min": [
        -0.6329452991485596,
        -0.44228342175483704,
        -0.010837268084287643
      ],
      "type": "VEC3"
    },
    {
      "bufferView": 2,
      "byteOffset": 164760,
      "componentType": 5126,
      "count": 13730,
      "max": [
        1.0,
        1.0,
        1.0
      ],
      "min": [
        -1.0,
        -1.0,
        -0.5906892418861389
      ],
      "type": "VEC3"
    },
    {
      "bufferView": 1,
      "componentType": 5126,
      "count": 13730,
      "max": [
        1.0,
        1.0
      ],
      "min": [
        -2.597585480046405e-10,
        0.0
      ],
      "type": "VEC2"
    },
    {
      "bufferView": 1,
      "byteOffset": 109840,
      "componentType": 5126,
      "count": 13730,
      "max": [
        1.0,
        1.0
      ],
      "min": [
        -2.597585480046405e-10,
        0.0
      ],
      "type": "VEC2"
    },
    {
      "bufferView": 1,
      "byteOffset": 219680,
      "componentType": 5126,
      "count": 13730,
      "max": [
        1.0,
        1.0
      ],
      "min": [
        -2.597585480046405e-10,
        0.0
      ],
      "type": "VEC2"
    },
    {
      "bufferView": 1,
      "byteOffset": 329520,
      "componentType": 5126,
      "count": 13730,
      "max": [
        1.0,
        1.0
      ],
      "min": [
        -2.597585480046405e-10,
        0.0
      ],
      "type": "VEC2"
    },
    {
      "bufferView": 1,
      "byteOffset": 439360,
      "componentType": 5126,
      "count": 13730,
      "max": [
        1.0,
        1.0
      ],
      "min": [
        -2.597585480046405e-10,
        0.0
      ],
      "type": "VEC2"
    },
    {
      "bufferView": 1,
      "byteOffset": 549200,
      "componentType": 5126,
      "count": 13730,
      "max": [
        1.0,
        1.0
      ],
      "min": [
        -2.597585480046405e-10,
        0.0
      ],
      "type": "VEC2"
    },
    {
      "bufferView": 1,
      "byteOffset": 659040,
      "componentType": 5126,
      "count": 13730,
      "max": [
        1.0,
        1.0
      ],
      "min": [
        -2.597585480046405e-10,
        0.0
      ],
      "type": "VEC2"
    },
    {
      "bufferView": 1,
      "byteOffset": 768880,
      "componentType": 5126,
      "count": 13730,
      "max": [
        1.0,
        1.0
      ],
      "min": [
        -2.597585480046405e-10,
        0.0
      ],
      "type": "VEC2"
    },
    {
      "bufferView": 1,
      "byteOffset": 878720,
      "componentType": 5126,
      "count": 13730,
      "max": [
        1.0,
        1.0
      ],
      "min": [
        -2.597585480046405e-10,
        0.0
      ],
      "type": "VEC2"
    },
    {
      "bufferView": 1,
      "byteOffset": 988560,
      "componentType": 5126,
      "count": 13730,
      "max": [
        1.0,
        1.0
      ],
      "min": [
        -2.597585480046405e-10,
        0.0
      ],
      "type": "VEC2"
    },
    {
      "bufferView": 0,
      "componentType": 5125,
      "count": 27216,
      "type": "SCALAR"
    },
    {
      "bufferView": 2,
      "byteOffset": 329520,
      "componentType": 5126,
      "count": 582,
      "max": [
        0.4547615349292755,
        0.34542787075042725,
        -0.010837268084287643
      ],
      "min": [
        -0.525525689125061,
        -0.2950606346130371,
        -0.010837268084287643
      ],
      "type": "VEC3"
    },
    {
      "bufferView": 2,
      "byteOffset": 336504,
      "componentType": 5126,
      "count": 582,
      "max": [
        4.260171238001931e-08,
        0.0,
        1.0
      ],
      "min": [
        -6.851013267805683e-08,
        0.0,
        1.0
      ],
      "type": "VEC3"
    },
    {
      "bufferView": 1,
      "byteOffset": 1098400,
      "componentType": 5126,
      "count": 582,
      "max": [
        0.8592617511749268,
        0.8454279899597168
      ],
      "min": [
        0.08483469486236572,
        0.204939067363739
      ],
      "type": "VEC2"
    },
    {
      "bufferView": 1,
      "byteOffset": 1103056,
      "componentType": 5126,
      "count": 582,
      "max": [
        0.8592617511749268,
        0.8454279899597168
      ],
      "min": [
        0.08483469486236572,
        0.204939067363739
      ],
      "type": "VEC2"
    },
    {
      "bufferView": 1,
      "byteOffset": 1107712,
      "componentType": 5126,
      "count": 582,
      "max": [
        0.8592617511749268,
        0.8454279899597168
      ],
      "min": [
        0.08483469486236572,
        0.204939067363739
      ],
      "type": "VEC2"
    },
    {
      "bufferView": 1,
      "byteOffset": 1112368,
      "componentType": 5126,
      "count": 582,
      "max": [
        0.8592617511749268,
        0.8454279899597168
      ],
      "min": [
        0.08483469486236572,
        0.204939067363739
      ],
      "type": "VEC2"
    },
    {
      "bufferView": 1,
      "byteOffset": 1117024,
      "componentType": 5126,
      "count": 582,
      "max": [
        0.8592617511749268,
        0.8454279899597168
      ],
      "min": [
        0.08483469486236572,
        0.204939067363739
      ],
      "type": "VEC2"
    },
    {
      "bufferView": 1,
      "byteOffset": 1121680,
      "componentType": 5126,
      "count": 582,
      "max": [
        0.8592617511749268,
        0.8454279899597168
      ],
      "min": [
        0.08483469486236572,
        0.204939067363739
      ],
      "type": "VEC2"
    },
    {
      "bufferView": 1,
      "byteOffset": 1126336,
      "componentType": 5126,
      "count": 582,
      "max": [
        0.8592617511749268,
        0.8454279899597168
      ],
      "min": [
        0.08483469486236572,
        0.204939067363739
      ],
      "type": "VEC2"
    },
    {
      "bufferView": 1,
      "byteOffset": 1130992,
      "componentType": 5126,
      "count": 582,
      "max": [
        0.8592617511749268,
        0.8454279899597168
      ],
      "min": [
        0.08483469486236572,
        0.204939067363739
      ],
      "type": "VEC2"
    },
    {
      "bufferView": 1,
      "byteOffset": 1135648,
      "componentType": 5126,
      "count": 582,
      "max": [
        0.8592617511749268,
        0.8454279899597168
      ],
      "min": [
        0.08483469486236572,
        0.204939067363739
      ],
      "type": "VEC2"
    },
    {
      "bufferView": 1,
      "byteOffset": 1140304,
      "componentType": 5126,
      "count": 582,
      "max": [
        0.8592617511749268,
        0.8454279899597168
      ],
      "min": [
        0.08483469486236572,
        0.204939067363739
      ],
      "type": "VEC2"
    },
    {
      "bufferView": 0,
      "byteOffset": 108864,
      "componentType": 5125,
      "count": 768,
      "type": "SCALAR"
    },
    {
      "bufferView": 2,
      "byteOffset": 343488,
      "componentType": 5126,
      "count": 23676,
      "max": [
        0.3503325879573822,
        0.3971637487411499,
        0.02440524287521839
      ],
      "min": [
        -0.1620224565267563,
        -0.5004554986953735,
        -0.059497758746147156
      ],
      "type": "VEC3"
    },
    {
      "bufferView": 2,
      "byteOffset": 627600,
      "componentType": 5126,
      "count": 23676,
      "max": [
        1.0,
        1.0,
        1.0
      ],
      "min": [
        -1.0,
        -1.0,
        -1.0
      ],
      "type": "VEC3"
    },
    {
      "bufferView": 1,
      "byteOffset": 1144960,
      "componentType": 5126,
      "count": 23676,
      "max": [
        0.997204601764679,
        1.003434419631958
      ],
      "min": [
        -0.0,
        -0.003873467445373535
      ],
      "type": "VEC2"
    },
    {
      "bufferView": 1,
      "byteOffset": 1334368,
      "componentType": 5126,
      "count": 23676,
      "max": [
        0.997204601764679,
        1.003434419631958
      ],
      "min": [
        -0.0,
        -0.003873467445373535
      ],
      "type": "VEC2"
    },
    {
      "bufferView": 1,
      "byteOffset": 1523776,
      "componentType": 5126,
      "count": 23676,
      "max": [
        0.997204601764679,
        1.003434419631958
      ],
      "min": [
        -0.0,
        -0.003873467445373535
      ],
      "type": "VEC2"
    },
    {
      "bufferView": 1,
      "byteOffset": 1713184,
      "componentType": 5126,
      "count": 23676,
      "max": [
        0.997204601764679,
        1.003434419631958
      ],
      "min": [
        -0.0,
        -0.003873467445373535
      ],
      "type": "VEC2"
    },
    {
      "bufferView": 1,
      "byteOffset": 1902592,
      "componentType": 5126,
      "count": 23676,
      "max": [
        0.997204601764679,
        1.003434419631958
      ],
      "min": [
        -0.0,
        -0.003873467445373535
      ],
      "type": "VEC2"
    },
    {
      "bufferView": 1,
      "byteOffset": 2092000,
      "componentType": 5126,
      "count": 23676,
      "max": [
        0.997204601764679,
        1.003434419631958
      ],
      "min": [
        -0.0,
        -0.003873467445373535
      ],
      "type": "VEC2"
    },
    {
      "bufferView": 1,
      "byteOffset": 2281408,
      "componentType": 5126,
      "count": 23676,
      "max": [
        0.997204601764679,
        1.003434419631958
      ],
      "min": [
        -0.0,
        -0.003873467445373535
      ],
      "type": "VEC2"
    },
    {
      "bufferView": 1,
      "byteOffset": 2470816,
      "componentType": 5126,
      "count": 23676,
      "max": [
        0.997204601764679,
        1.003434419631958
      ],
      "min": [
        -0.0,
        -0.003873467445373535
      ],
      "type": "VEC2"
    },
    {
      "bufferView": 1,
      "byteOffset": 2660224,
      "componentType": 5126,
      "count": 23676,
      "max": [
        0.997204601764679,
        1.003434419631958
      ],
      "min": [
        -0.0,
        -0.003873467445373535
      ],
      "type": "VEC2"
    },
    {
      "bufferView": 0,
      "byteOffset": 111936,
      "componentType": 5125,
      "count": 45978,
      "type": "SCALAR"
    },
    {
      "bufferView": 2,
      "byteOffset": 911712,
      "componentType": 5126,
      "count": 1351,
      "max": [
        0.2568298280239105,
        0.3254229426383972,
        -0.0051880208775401115
      ],
      "min": [
        -0.11096751689910889,
        -0.44273948669433594,
        -0.0143140759319067
      ],
      "type": "VEC3"
    },
    {
      "bufferView": 2,
      "byteOffset": 927924,
      "componentType": 5126,
      "count": 1351,
      "max": [
        2.5751663201845076e-07,
        0.0,
        1.0
      ],
      "min": [
        -2.2377415120899968e-07,
        0.0,
        1.0
      ],
      "type": "VEC3"
    },
    {
      "bufferView": 1,
      "byteOffset": 2849632,
      "componentType": 5126,
      "count": 1351,
      "max": [
        0.710600733757019,
        0.8254233598709106
      ],
      "min": [
        0.40900659561157227,
        0.057260096073150635
      ],
      "type": "VEC2"
    },
    {
      "bufferView": 1,
      "byteOffset": 2860440,
      "componentType": 5126,
      "count": 1351,
      "max": [
        0.710600733757019,
        0.8254233598709106
      ],
      "min": [
        0.40900659561157227,
        0.057260096073150635
      ],
      "type": "VEC2"
    },
    {
      "bufferView": 1,
      "byteOffset": 2871248,
      "componentType": 5126,
      "count": 1351,
      "max": [
        0.710600733757019,
        0.8254233598709106
      ],
      "min": [
        0.40900659561157227,
        0.057260096073150635
      ],
      "type": "VEC2"
    },
    {
      "bufferView": 1,
      "byteOffset": 2882056,
      "componentType": 5126,
      "count": 1351,
      "max": [
        0.710600733757019,
        0.8254233598709106
      ],
      "min": [
        0.40900659561157227,
        0.057260096073150635
      ],
      "type": "VEC2"
    },
    {
      "bufferView": 1,
      "byteOffset": 2892864,
      "componentType": 5126,
      "count": 1351,
      "max": [
        0.710600733757019,
        0.8254233598709106
      ],
      "min": [
        0.40900659561157227,
        0.057260096073150635
      ],
      "type": "VEC2"
    },
    {
      "bufferView": 1,
      "byteOffset": 2903672,
      "componentType": 5126,
      "count": 1351,
      "max": [
        0.710600733757019,
        0.8254233598709106
      ],
      "min": [
        0.40900659561157227,
        0.057260096073150635
      ],
      "type": "VEC2"
    },
    {
      "bufferView": 1,
      "byteOffset": 2914480,
      "componentType": 5126,
      "count": 1351,
      "max": [
        0.710600733757019,
        0.8254233598709106
      ],
      "min": [
        0.40900659561157227,
        0.057260096073150635
      ],
      "type": "VEC2"
    },
    {
      "bufferView": 1,
      "byteOffset": 2925288,
      "componentType": 5126,
      "count": 1351,
      "max": [
        0.710600733757019,
        0.8254233598709106
      ],
      "min": [
        0.40900659561157227,
        0.057260096073150635
      ],
      "type": "VEC2"
    },
    {
      "bufferView": 1,
      "byteOffset": 2936096,
      "componentType": 5126,
      "count": 1351,
      "max": [
        0.710600733757019,
        0.8254233598709106
      ],
      "min": [
        0.40900659561157227,
        0.057260096073150635
      ],
      "type": "VEC2"
    },
    {
      "bufferView": 1,
      "byteOffset": 2946904,
      "componentType": 5126,
      "count": 1351,
      "max": [
        0.710600733757019,
        0.8254233598709106
      ],
      "min": [
        0.40900659561157227,
        0.057260096073150635
      ],
      "type": "VEC2"
    },
    {
      "bufferView": 0,
      "byteOffset": 295848,
      "componentType": 5125,
      "count": 2268,
      "type": "SCALAR"
    },
    {
      "bufferView": 2,
      "byteOffset": 944136,
      "componentType": 5126,
      "count": 245,
      "max": [
        0.11035212874412537,
        0.2805215120315552,
        0.0028998367488384247
      ],
      "min": [
        -0.086949422955513,
        -0.44315311312675476,
        0.0028998367488384247
      ],
      "type": "VEC3"
    },
    {
      "bufferView": 2,
      "byteOffset": 947076,
      "componentType": 5126,
      "count": 245,
      "max": [
        2.911808927308357e-08,
        0.0,
        1.0
      ],
      "min": [
        -3.104016599309034e-08,
        0.0,
        1.0
      ],
      "type": "VEC3"
    },
    {
      "bufferView": 1,
      "byteOffset": 2957712,
      "componentType": 5126,
      "count": 245,
      "max": [
        0.31534063816070557,
        0.7805221676826477
      ],
      "min": [
        0.1535533368587494,
        0.05684685707092285
      ],
      "type": "VEC2"
    },
    {
      "bufferView": 1,
      "byteOffset": 2959672,
      "componentType": 5126,
      "count": 245,
      "max": [
        0.31534063816070557,
        0.7805221676826477
      ],
      "min": [
        0.1535533368587494,
        0.05684685707092285
      ],
      "type": "VEC2"
    },
    {
      "bufferView": 1,
      "byteOffset": 2961632,
      "componentType": 5126,
      "count": 245,
      "max": [
        0.31534063816070557,
        0.7805221676826477
      ],
      "min": [
        0.1535533368587494,
        0.05684685707092285
      ],
      "type": "VEC2"
    },
    {
      "bufferView": 1,
      "byteOffset": 2963592,
      "componentType": 5126,
      "count": 245,
      "max": [
        0.31534063816070557,
        0.7805221676826477
      ],
      "min": [
        0.1535533368587494,
        0.05684685707092285
      ],
      "type": "VEC2"
    },
    {
      "bufferView": 1,
      "byteOffset": 2965552,
      "componentType": 5126,
      "count": 245,
      "max": [
        0.31534063816070557,
        0.7805221676826477
      ],
      "min": [
        0.1535533368587494,
        0.05684685707092285
      ],
      "type": "VEC2"
    },
    {
      "bufferView": 1,
      "byteOffset": 2967512,
      "componentType": 5126,
      "count": 245,
      "max": [
        0.31534063816070557,
        0.7805221676826477
      ],
      "min": [
        0.1535533368587494,
        0.05684685707092285
      ],
      "type": "VEC2"
    },
    {
      "bufferView": 1,
      "byteOffset": 2969472,
      "componentType": 5126,
      "count": 245,
      "max": [
        0.31534063816070557,
        0.7805221676826477
      ],
      "min": [
        0.1535533368587494,
        0.05684685707092285
      ],
      "type": "VEC2"
    },
    {
      "bufferView": 1,
      "byteOffset": 2971432,
      "componentType": 5126,
      "count": 245,
      "max": [
        0.31534063816070557,
        0.7805221676826477
      ],
      "min": [
        0.1535533368587494,
        0.05684685707092285
      ],
      "type": "VEC2"
    },
    {
      "bufferView": 1,
      "byteOffset": 2973392,
      "componentType": 5126,
      "count": 245,
      "max": [
        0.31534063816070557,
        0.7805221676826477
      ],
      "min": [
        0.1535533368587494,
        0.05684685707092285
      ],
      "type": "VEC2"
    },
    {
      "bufferView": 1,
      "byteOffset": 2975352,
      "componentType": 5126,
      "count": 245,
      "max": [
        0.31534063816070557,
        0.7805221676826477
      ],
      "min": [
        0.1535533368587494,
        0.05684685707092285
      ],
      "type": "VEC2"
    },
    {
      "bufferView": 0,
      "byteOffset": 304920,
      "componentType": 5125,
      "count": 345,
      "type": "SCALAR"
    },
    {
      "bufferView": 2,
      "byteOffset": 950016,
      "componentType": 5126,
      "count": 24574,
      "max": [
        0.18903271853923798,
        0.5000205039978027,
        0.02256839908659458
      ],
      "min": [
        -0.18903273344039917,
        -0.5,
        -0.008581344038248062
      ],
      "type": "VEC3"
    },
    {
      "bufferView": 2,
      "byteOffset": 1244904,
      "componentType": 5126,
      "count": 24574,
      "max": [
        1.0,
        1.0,
        1.0
      ],
      "min": [
        -1.0,
        -1.0,
        -1.0
      ],
      "type": "VEC3"
    },
    {
      "bufferView": 1,
      "byteOffset": 2977312,
      "componentType": 5126,
      "count": 24574,
      "max": [
        0.38192495703697205,
        1.0
      ],
      "min": [
        -0.0,
        0.0
      ],
      "type": "VEC2"
    },
    {
      "bufferView": 1,
      "byteOffset": 3173904,
      "componentType": 5126,
      "count": 24574,
      "max": [
        0.38192495703697205,
        1.0
      ],
      "min": [
        -0.0,
        0.0
      ],
      "type": "VEC2"
    },
    {
      "bufferView": 1,
      "byteOffset": 3370496,
      "componentType": 5126,
      "count": 24574,
      "max": [
        0.38192495703697205,
        1.0
      ],
      "min": [
        -0.0,
        0.0
      ],
      "type": "VEC2"
    },
    {
      "bufferView": 1,
      "byteOffset": 3567088,
      "componentType": 5126,
      "count": 24574,
      "max": [
        0.38192495703697205,
        1.0
      ],
      "min": [
        -0.0,
        0.0
      ],
      "type": "VEC2"
    },
    {
      "bufferView": 1,
      "byteOffset": 3763680,
      "componentType": 5126,
      "count": 24574,
      "max": [
        0.38192495703697205,
        1.0
      ],
      "min": [
        -0.0,
        0.0
      ],
      "type": "VEC2"
    },
    {
      "bufferView": 1,
      "byteOffset": 3960272,
      "componentType": 5126,
      "count": 24574,
      "max": [
        0.38192495703697205,
        1.0
      ],
      "min": [
        -0.0,
        0.0
      ],
      "type": "VEC2"
    },
    {
      "bufferView": 1,
      "byteOffset": 4156864,
      "componentType": 5126,
      "count": 24574,
      "max": [
        0.38192495703697205,
        1.0
      ],
      "min": [
        -0.0,
        0.0
      ],
      "type": "VEC2"
    },
    {
      "bufferView": 1,
      "byteOffset": 4353456,
      "componentType": 5126,
      "count": 24574,
      "max": [
        0.38192495703697205,
        1.0
      ],
      "min": [
        -0.0,
        0.0
      ],
      "type": "VEC2"
    },
    {
      "bufferView": 1,
      "byteOffset": 4550048,
      "componentType": 5126,
      "count": 24574,
      "max": [
        0.38192495703697205,
        1.0
      ],
      "min": [
        -0.0,
        0.0
      ],
      "type": "VEC2"
    },
    {
      "bufferView": 1,
      "byteOffset": 4746640,
      "componentType": 5126,
      "count": 24574,
      "max": [
        0.38192495703697205,
        1.0
      ],
      "min": [
        -0.0,
        0.0
      ],
      "type": "VEC2"
    },
    {
      "bufferView": 0,
      "byteOffset": 306300,
      "componentType": 5125,
      "count": 41817,
      "type": "SCALAR"
    },
    {
      "bufferView": 2,
      "byteOffset": 1539792,
      "componentType": 5126,
      "count": 2862,
      "max": [
        0.9367681741714478,
        0.43043479323387146,
        0.1736961305141449
      ],
      "min": [
        -0.9367681741714478,
        -0.48135679960250854,
        0.0
      ],
      "type": "VEC3"
    },
    {
      "bufferView": 2,
      "byteOffset": 1574136,
      "componentType": 5126,
      "count": 2862,
      "max": [
        1.0,
        1.0,
        1.0
      ],
      "min": [
        -1.0,
        -1.0,
        -1.0
      ],
      "type": "VEC3"
    },
    {
      "bufferView": 1,
      "byteOffset": 4943232,
      "componentType": 5126,
      "count": 2862,
      "max": [
        1.0,
        0.9304348826408386
      ],
      "min": [
        -0.0,
        0.0
      ],
      "type": "VEC2"
    },
    {
      "bufferView": 1,
      "byteOffset": 4966128,
      "componentType": 5126,
      "count": 2862,
      "max": [
        1.0,
        0.9304348826408386
      ],
      "min": [
        -0.0,
        0.0
      ],
      "type": "VEC2"
    },
    {
      "bufferView": 1,
      "byteOffset": 4989024,
      "componentType": 5126,
      "count": 2862,
      "max": [
        1.0,
        0.9304348826408386
      ],
      "min": [
        -0.0,
        0.0
      ],
      "type": "VEC2"
    },
    {
      "bufferView": 1,
      "byteOffset": 5011920,
      "componentType": 5126,
      "count": 2862,
      "max": [
        1.0,
        0.9304348826408386
      ],
      "min": [
        -0.0,
        0.0
      ],
      "type": "VEC2"
    },
    {
      "bufferView": 1,
      "byteOffset": 5034816,
      "componentType": 5126,
      "count": 2862,
      "max": [
        1.0,
        0.9304348826408386
      ],
      "min": [
        -0.0,
        0.0
      ],
      "type": "VEC2"
    },
    {
      "bufferView": 1,
      "byteOffset": 5057712,
      "componentType": 5126,
      "count": 2862,
      "max": [
        1.0,
        0.9304348826408386
      ],
      "min": [
        -0.0,
        0.0
      ],
      "type": "VEC2"
    },
    {
      "bufferView": 1,
      "byteOffset": 5080608,
      "componentType": 5126,
      "count": 2862,
      "max": [
        1.0,
        0.9304348826408386
      ],
      "min": [
        -0.0,
        0.0
      ],
      "type": "VEC2"
    },
    {
      "bufferView": 1,
      "byteOffset": 5103504,
      "componentType": 5126,
      "count": 2862,
      "max": [
        1.0,
        0.9304348826408386
      ],
      "min": [
        -0.0,
        0.0
      ],
      "type": "VEC2"
    },
    {
      "bufferView": 1,
      "byteOffset": 5126400,
      "componentType": 5126,
      "count": 2862,
      "max": [
        1.0,
        0.9304348826408386
      ],
      "min": [
        -0.0,
        0.0
      ],
      "type": "VEC2"
    },
    {
      "bufferView": 0,
      "byteOffset": 473568,
      "componentType": 5125,
      "count": 7572,
      "type": "SCALAR"
    },
    {
      "bufferView": 2,
      "byteOffset": 1608480,
      "componentType": 5126,
      "count": 143,
      "max": [
        0.9367681741714478,
        0.22910580039024353,
        0.0585007406771183
      ],
      "min": [
        -0.8622437715530396,
        -0.29402512311935425,
        0.0
      ],
      "type": "VEC3"
    },
    {
      "bufferView": 2,
      "byteOffset": 1610196,
      "componentType": 5126,
      "count": 143,
      "max": [
        0.0,
        0.0,
        1.0
      ],
      "min": [
        0.0,
        0.0,
        1.0
      ],
      "type": "VEC3"
    },
    {
      "bufferView": 1,
      "byteOffset": 5149296,
      "componentType": 5126,
      "count": 143,
      "max": [
        1.0,
        0.7291058301925659
      ],
      "min": [
        0.03977738320827484,
        0.20597487688064575
      ],
      "type": "VEC2"
    },
    {
      "bufferView": 1,
      "byteOffset": 5150440,
      "componentType": 5126,
      "count": 143,
      "max": [
        1.0,
        0.7291058301925659
      ],
      "min": [
        0.03977738320827484,
        0.20597487688064575
      ],
      "type": "VEC2"
    },
    {
      "bufferView": 1,
      "byteOffset": 5151584,
      "componentType": 5126,
      "count": 143,
      "max": [
        1.0,
        0.7291058301925659
      ],
      "min": [
        0.03977738320827484,
        0.20597487688064575
      ],
      "type": "VEC2"
    },
    {
      "bufferView": 1,
      "byteOffset": 5152728,
      "componentType": 5126,
      "count": 143,
      "max": [
        1.0,
        0.7291058301925659
      ],
      "min": [
        0.03977738320827484,
        0.20597487688064575
      ],
      "type": "VEC2"
    },
    {
      "bufferView": 1,
      "byteOffset": 5153872,
      "componentType": 5126,
      "count": 143,
      "max": [
        1.0,
        0.7291058301925659
      ],
      "min": [
        0.03977738320827484,
        0.20597487688064575
      ],
      "type": "VEC2"
    },
    {
      "bufferView": 1,
      "byteOffset": 5155016,
      "componentType": 5126,
      "count": 143,
      "max": [
        1.0,
        0.7291058301925659
      ],
      "min": [
        0.03977738320827484,
        0.20597487688064575
      ],
      "type": "VEC2"
    },
    {
      "bufferView": 1,
      "byteOffset": 5156160,
      "componentType": 5126,
      "count": 143,
      "max": [
        1.0,
        0.7291058301925659
      ],
      "min": [
        0.03977738320827484,
        0.20597487688064575
      ],
      "type": "VEC2"
    },
    {
      "bufferView": 1,
      "byteOffset": 5157304,
      "componentType": 5126,
      "count": 143,
      "max": [
        1.0,
        0.7291058301925659
      ],
      "min": [
        0.03977738320827484,
        0.20597487688064575
      ],
      "type": "VEC2"
    },
    {
      "bufferView": 1,
      "byteOffset": 5158448,
      "componentType": 5126,
      "count": 143,
      "max": [
        1.0,
        0.7291058301925659
      ],
      "min": [
        0.03977738320827484,
        0.20597487688064575
      ],
      "type": "VEC2"
    },
    {
      "bufferView": 1,
      "byteOffset": 5159592,
      "componentType": 5126,
      "count": 143,
      "max": [
        1.0,
        0.7291058301925659
      ],
      "min": [
        0.03977738320827484,
        0.20597487688064575
      ],
      "type": "VEC2"
    },
    {
      "bufferView": 0,
      "byteOffset": 503856,
      "componentType": 5125,
      "count": 288,
      "type": "SCALAR"
    },
    {
      "bufferView": 2,
      "byteOffset": 1611912,
      "componentType": 5126,
      "count": 7584,
      "max": [
        0.3960007131099701,
        0.50245600938797,
        0.04156911373138428
      ],
      "min": [
        -0.41000670194625854,
        -0.5001808404922485,
        -0.04790835455060005
      ],
      "type": "VEC3"
    },
    {
      "bufferView": 2,
      "byteOffset": 1702920,
      "componentType": 5126,
      "count": 7584,
      "max": [
        1.0,
        1.0,
        1.0
      ],
      "min": [
        -1.0,
        -1.0,
        -1.0
      ],
      "type": "VEC3"
    },
    {
      "bufferView": 1,
      "byteOffset": 5160736,
      "componentType": 5126,
      "count": 7584,
      "max": [
        0.9523903131484985,
        1.0
      ],
      "min": [
        -0.0,
        0.0
      ],
      "type": "VEC2"
    },
    {
      "bufferView": 1,
      "byteOffset": 5221408,
      "componentType": 5126,
      "count": 7584,
      "max": [
        0.9523903131484985,
        1.0
      ],
      "min": [
        -0.0,
        0.0
      ],
      "type": "VEC2"
    },
    {
      "bufferView": 1,
      "byteOffset": 5282080,
      "componentType": 5126,
      "count": 7584,
      "max": [
        0.9523903131484985,
        1.0
      ],
      "min": [
        -0.0,
        0.0
      ],
      "type": "VEC2"
    },
    {
      "bufferView": 1,
      "byteOffset": 5342752,
      "componentType": 5126,
      "count": 7584,
      "max": [
        0.9523903131484985,
        1.0
      ],
      "min": [
        -0.0,
        0.0
      ],
      "type": "VEC2"
    },
    {
      "bufferView": 1,
      "byteOffset": 5403424,
      "componentType": 5126,
      "count": 7584,
      "max": [
        0.9523903131484985,
        1.0
      ],
      "min": [
        -0.0,
        0.0
      ],
      "type": "VEC2"
    },
    {
      "bufferView": 1,
      "byteOffset": 5464096,
      "componentType": 5126,
      "count": 7584,
      "max": [
        0.9523903131484985,
        1.0
      ],
      "min": [
        -0.0,
        0.0
      ],
      "type": "VEC2"
    },
    {
      "bufferView": 1,
      "byteOffset": 5524768,
      "componentType": 5126,
      "count": 7584,
      "max": [
        0.9523903131484985,
        1.0
      ],
      "min": [
        -0.0,
        0.0
      ],
      "type": "VEC2"
    },
    {
      "bufferView": 1,
      "byteOffset": 5585440,
      "componentType": 5126,
      "count": 7584,
      "max": [
        0.9523903131484985,
        1.0
      ],
      "min": [
        -0.0,
        0.0
      ],
      "type": "VEC2"
    },
    {
      "bufferView": 1,
      "byteOffset": 5646112,
      "componentType": 5126,
      "count": 7584,
      "max": [
        0.9523903131484985,
        1.0
      ],
      "min": [
        -0.0,
        0.0
      ],
      "type": "VEC2"
    },
    {
      "bufferView": 0,
      "byteOffset": 505008,
      "componentType": 5125,
      "count": 18660,
      "type": "SCALAR"
    },
    {
      "bufferView": 2,
      "byteOffset": 1793928,
      "componentType": 5126,
      "count": 5460,
      "max": [
        0.3321875035762787,
        0.49456852674484253,
        0.05925827473402023
      ],
      "min": [
        -0.3321875035762787,
        -0.483186274766922,
        0.0
      ],
      "type": "VEC3"
    },
    {
      "bufferView": 2,
      "byteOffset": 1859448,
      "componentType": 5126,
      "count": 5460,
      "max": [
        1.0,
        1.0,
        1.0
      ],
      "min": [
        -1.0,
        -1.0,
        -0.05872198939323425
      ],
      "type": "VEC3"
    },
    {
      "bufferView": 1,
      "byteOffset": 5706784,
      "componentType": 5126,
      "count": 5460,
      "max": [
        1.0,
        0.9945685863494873
      ],
      "min": [
        -1.1175870895385742e-08,
        0.0
      ],
      "type": "VEC2"
    },
    {
      "bufferView": 1,
      "byteOffset": 5750464,
      "componentType": 5126,
      "count": 5460,
      "max": [
        1.0,
        0.9945685863494873
      ],
      "min": [
        -1.1175870895385742e-08,
        0.0
      ],
      "type": "VEC2"
    },
    {
      "bufferView": 1,
      "byteOffset": 5794144,
      "componentType": 5126,
      "count": 5460,
      "max": [
        1.0,
        0.9945685863494873
      ],
      "min": [
        -1.1175870895385742e-08,
        0.0
      ],
      "type": "VEC2"
    },
    {
      "bufferView": 1,
      "byteOffset": 5837824,
      "componentType": 5126,
      "count": 5460,
      "max": [
        1.0,
        0.9945685863494873
      ],
      "min": [
        -1.1175870895385742e-08,
        0.0
      ],
      "type": "VEC2"
    },
    {
      "bufferView": 1,
      "byteOffset": 5881504,
      "componentType": 5126,
      "count": 5460,
      "max": [
        1.0,
        0.9945685863494873
      ],
      "min": [
        -1.1175870895385742e-08,
        0.0
      ],
      "type": "VEC2"
    },
    {
      "bufferView": 1,
      "byteOffset": 5925184,
      "componentType": 5126,
      "count": 5460,
      "max": [
        1.0,
        0.9945685863494873
      ],
      "min": [
        -1.1175870895385742e-08,
        0.0
      ],
      "type": "VEC2"
    },
    {
      "bufferView": 1,
      "byteOffset": 5968864,
      "componentType": 5126,
      "count": 5460,
      "max": [
        1.0,
        0.9945685863494873
      ],
      "min": [
        -1.1175870895385742e-08,
        0.0
      ],
      "type": "VEC2"
    },
    {
      "bufferView": 1,
      "byteOffset": 6012544,
      "componentType": 5126,
      "count": 5460,
      "max": [
        1.0,
        0.9945685863494873
      ],
      "min": [
        -1.1175870895385742e-08,
        0.0
      ],
      "type": "VEC2"
    },
    {
      "bufferView": 1,
      "byteOffset": 6056224,
      "componentType": 5126,
      "count": 5460,
      "max": [
        1.0,
        0.9945685863494873
      ],
      "min": [
        -1.1175870895385742e-08,
        0.0
      ],
      "type": "VEC2"
    },
    {
      "bufferView": 1,
      "byteOffset": 6099904,
      "componentType": 5126,
      "count": 5460,
      "max": [
        1.0,
        0.9945685863494873
      ],
      "min": [
        -1.1175870895385742e-08,
        0.0
      ],
      "type": "VEC2"
    },
    {
      "bufferView": 0,
      "byteOffset": 579648,
      "componentType": 5125,
      "count": 11817,
      "type": "SCALAR"
    },
    {
      "bufferView": 2,
      "byteOffset": 1924968,
      "componentType": 5126,
      "count": 51,
      "max": [
        0.26752975583076477,
        -0.06975257396697998,
        0.0
      ],
      "min": [
        -0.26150932908058167,
        -0.48240453004837036,
        0.0
      ],
      "type": "VEC3"
    },
    {
      "bufferView": 2,
      "byteOffset": 1925580,
      "componentType": 5126,
      "count": 51,
      "max": [
        0.0,
        0.0,
        1.0
      ],
      "min": [
        0.0,
        0.0,
        1.0
      ],
      "type": "VEC3"
    },
    {
      "bufferView": 1,
      "byteOffset": 6143584,
      "componentType": 5126,
      "count": 51,
      "max": [
        0.9026788473129272,
        0.43024742603302
      ],
      "min": [
        0.10638293623924255,
        0.01759546995162964
      ],
      "type": "VEC2"
    },
    {
      "bufferView": 1,
      "byteOffset": 6143992,
      "componentType": 5126,
      "count": 51,
      "max": [
        0.9026788473129272,
        0.43024742603302
      ],
      "min": [
        0.10638293623924255,
        0.01759546995162964
      ],
      "type": "VEC2"
    },
    {
      "bufferView": 1,
      "byteOffset": 6144400,
      "componentType": 5126,
      "count": 51,
      "max": [
        0.9026788473129272,
        0.43024742603302
      ],
      "min": [
        0.10638293623924255,
        0.01759546995162964
      ],
      "type": "VEC2"
    },
    {
      "bufferView": 1,
      "byteOffset": 6144808,
      "componentType": 5126,
      "count": 51,
      "max": [
        0.9026788473129272,
        0.43024742603302
      ],
      "min": [
        0.10638293623924255,
        0.01759546995162964
      ],
      "type": "VEC2"
    },
    {
      "bufferView": 1,
      "byteOffset": 6145216,
      "componentType": 5126,
      "count": 51,
      "max": [
        0.9026788473129272,
        0.43024742603302
      ],
      "min": [
        0.10638293623924255,
        0.01759546995162964
      ],
      "type": "VEC2"
    },
    {
      "bufferView": 1,
      "byteOffset": 6145624,
      "componentType": 5126,
      "count": 51,
      "max": [
        0.9026788473129272,
        0.43024742603302
      ],
      "min": [
        0.10638293623924255,
        0.01759546995162964
      ],
      "type": "VEC2"
    },
    {
      "bufferView": 1,
      "byteOffset": 6146032,
      "componentType": 5126,
      "count": 51,
      "max": [
        0.9026788473129272,
        0.43024742603302
      ],
      "min": [
        0.10638293623924255,
        0.01759546995162964
      ],
      "type": "VEC2"
    },
    {
      "bufferView": 1,
      "byteOffset": 6146440,
      "componentType": 5126,
      "count": 51,
      "max": [
        0.9026788473129272,
        0.43024742603302
      ],
      "min": [
        0.10638293623924255,
        0.01759546995162964
      ],
      "type": "VEC2"
    },
    {
      "bufferView": 1,
      "byteOffset": 6146848,
      "componentType": 5126,
      "count": 51,
      "max": [
        0.9026788473129272,
        0.43024742603302
      ],
      "min": [
        0.10638293623924255,
        0.01759546995162964
      ],
      "type": "VEC2"
    },
    {
      "bufferView": 1,
      "byteOffset": 6147256,
      "componentType": 5126,
      "count": 51,
      "max": [
        0.9026788473129272,
        0.43024742603302
      ],
      "min": [
        0.10638293623924255,
        0.01759546995162964
      ],
      "type": "VEC2"
    },
    {
      "bufferView": 0,
      "byteOffset": 626916,
      "componentType": 5125,
      "count": 108,
      "type": "SCALAR"
    },
    {
      "bufferView": 2,
      "byteOffset": 1926192,
      "componentType": 5126,
      "count": 6182,
      "max": [
        0.5830903649330139,
        1.0005663633346558,
        0.0634988322854042
      ],
      "min": [
        -0.5830903649330139,
        0.030434787273406982,
        -0.026040013879537582
      ],
      "type": "VEC3"
    },
    {
      "bufferView": 2,
      "byteOffset": 2000376,
      "componentType": 5126,
      "count": 6182,
      "max": [
        1.0,
        1.0,
        1.0
      ],
      "min": [
        -1.0,
        -1.0,
        -0.998201310634613
      ],
      "type": "VEC3"
    },
    {
      "bufferView": 1,
      "byteOffset": 6147664,
      "componentType": 5126,
      "count": 6182,
      "max": [
        1.0,
        1.0
      ],
      "min": [
        -0.0,
        0.0
      ],
      "type": "VEC2"
    },
    {
      "bufferView": 1,
      "byteOffset": 6197120,
      "componentType": 5126,
      "count": 6182,
      "max": [
        1.0,
        1.0
      ],
      "min": [
        -0.0,
        0.0
      ],
      "type": "VEC2"
    },
    {
      "bufferView": 1,
      "byteOffset": 6246576,
      "componentType": 5126,
      "count": 6182,
      "max": [
        1.0,
        1.0
      ],
      "min": [
        -0.0,
        0.0
      ],
      "type": "VEC2"
    },
    {
      "bufferView": 1,
      "byteOffset": 6296032,
      "componentType": 5126,
      "count": 6182,
      "max": [
        1.0,
        1.0
      ],
      "min": [
        -0.0,
        0.0
      ],
      "type": "VEC2"
    },
    {
      "bufferView": 1,
      "byteOffset": 6345488,
      "componentType": 5126,
      "count": 6182,
      "max": [
        1.0,
        1.0
      ],
      "min": [
        -0.0,
        0.0
      ],
      "type": "VEC2"
    },
    {
      "bufferView": 1,
      "byteOffset": 6394944,
      "componentType": 5126,
      "count": 6182,
      "max": [
        1.0,
        1.0
      ],
      "min": [
        -0.0,
        0.0
      ],
      "type": "VEC2"
    },
    {
      "bufferView": 1,
      "byteOffset": 6444400,
      "componentType": 5126,
      "count": 6182,
      "max": [
        1.0,
        1.0
      ],
      "min": [
        -0.0,
        0.0
      ],
      "type": "VEC2"
    },
    {
      "bufferView": 1,
      "byteOffset": 6493856,
      "componentType": 5126,
      "count": 6182,
      "max": [
        1.0,
        1.0
      ],
      "min": [
        -0.0,
        0.0
      ],
      "type": "VEC2"
    },
    {
      "bufferView": 1,
      "byteOffset": 6543312,
      "componentType": 5126,
      "count": 6182,
      "max": [
        1.0,
        1.0
      ],
      "min": [
        -0.0,
        0.0
      ],
      "type": "VEC2"
    },
    {
      "bufferView": 1,
      "byteOffset": 6592768,
      "componentType": 5126,
      "count": 6182,
      "max": [
        1.0,
        1.0
      ],
      "min": [
        -0.0,
        0.0
      ],
      "type": "VEC2"
    },
    {
      "bufferView": 0,
      "byteOffset": 627348,
      "componentType": 5125,
      "count": 10374,
      "type": "SCALAR"
    },
    {
      "bufferView": 2,
      "byteOffset": 2074560,
      "componentType": 5126,
      "count": 6,
      "max": [
        -0.21338807046413422,
        0.5972904562950134,
        0.009825220331549644
      ],
      "min": [
        -0.48751693964004517,
        0.406207412481308,
        0.009825203567743301
      ],
      "type": "VEC3"
    },
    {
      "bufferView": 2,
      "byteOffset": 2074632,
      "componentType": 5126,
      "count": 6,
      "max": [
        -6.22287927853904e-08,
        -4.873906167546238e-09,
        1.0
      ],
      "min": [
        -6.22287927853904e-08,
        -4.873906167546238e-09,
        1.0
      ],
      "type": "VEC3"
    },
    {
      "bufferView": 1,
      "byteOffset": 6642224,
      "componentType": 5126,
      "count": 6,
      "max": [
        0.314057856798172,
        0.5970696210861206
      ],
      "min": [
        0.08255261927843094,
        0.4088805913925171
      ],
      "type": "VEC2"
    },
    {
      "bufferView": 1,
      "byteOffset": 6642272,
      "componentType": 5126,
      "count": 6,
      "max": [
        0.314057856798172,
        0.5970696210861206
      ],
      "min": [
        0.08255261927843094,
        0.4088805913925171
      ],
      "type": "VEC2"
    },
    {
      "bufferView": 1,
      "byteOffset": 6642320,
      "componentType": 5126,
      "count": 6,
      "max": [
        0.314057856798172,
        0.5970696210861206
      ],
      "min": [
        0.08255261927843094,
        0.4088805913925171
      ],
      "type": "VEC2"
    },
    {
      "bufferView": 1,
      "byteOffset": 6642368,
      "componentType": 5126,
      "count": 6,
      "max": [
        0.314057856798172,
        0.5970696210861206
      ],
      "min": [
        0.08255261927843094,
        0.4088805913925171
      ],
      "type": "VEC2"
    },
    {
      "bufferView": 1,
      "byteOffset": 6642416,
      "componentType": 5126,
      "count": 6,
      "max": [
        0.314057856798172,
        0.5970696210861206
      ],
      "min": [
        0.08255261927843094,
        0.4088805913925171
      ],
      "type": "VEC2"
    },
    {
      "bufferView": 1,
      "byteOffset": 6642464,
      "componentType": 5126,
      "count": 6,
      "max": [
        0.314057856798172,
        0.5970696210861206
      ],
      "min": [
        0.08255261927843094,
        0.4088805913925171
      ],
      "type": "VEC2"
    },
    {
      "bufferView": 1,
      "byteOffset": 6642512,
      "componentType": 5126,
      "count": 6,
      "max": [
        0.314057856798172,
        0.5970696210861206
      ],
      "min": [
        0.08255261927843094,
        0.4088805913925171
      ],
      "type": "VEC2"
    },
    {
      "bufferView": 1,
      "byteOffset": 6642560,
      "componentType": 5126,
      "count": 6,
      "max": [
        0.314057856798172,
        0.5970696210861206
      ],
      "min": [
        0.08255261927843094,
        0.4088805913925171
      ],
      "type": "VEC2"
    },
    {
      "bufferView": 1,
      "byteOffset": 6642608,
      "componentType": 5126,
      "count": 6,
      "max": [
        0.314057856798172,
        0.5970696210861206
      ],
      "min": [
        0.08255261927843094,
        0.4088805913925171
      ],
      "type": "VEC2"
    },
    {
      "bufferView": 1,
      "byteOffset": 6642656,
      "componentType": 5126,
      "count": 6,
      "max": [
        0.314057856798172,
        0.5970696210861206
      ],
      "min": [
        0.08255261927843094,
        0.4088805913925171
      ],
      "type": "VEC2"
    },
    {
      "bufferView": 0,
      "byteOffset": 668844,
      "componentType": 5125,
      "count": 6,
      "type": "SCALAR"
    },
    {
      "bufferView": 2,
      "byteOffset": 2074704,
      "componentType": 5126,
      "count": 24,
      "max": [
        0.08568526059389114,
        0.5076143145561218,
        -0.026040013879537582
      ],
      "min": [
        -0.15231472253799438,
        0.24136993288993835,
        -0.026040013879537582
      ],
      "type": "VEC3"
    },
    {
      "bufferView": 2,
      "byteOffset": 2074992,
      "componentType": 5126,
      "count": 24,
      "max": [
        2.2504428542902133e-08,
        0.0,
        1.0
      ],
      "min": [
        0.0,
        0.0,
        1.0
      ],
      "type": "VEC3"
    },
    {
      "bufferView": 1,
      "byteOffset": 6642704,
      "componentType": 5126,
      "count": 24,
      "max": [
        0.5765021443367004,
        0.5118787884712219
      ],
      "min": [
        0.3658634424209595,
        0.23708266019821167
      ],
      "type": "VEC2"
    },
    {
      "bufferView": 1,
      "byteOffset": 6642896,
      "componentType": 5126,
      "count": 24,
      "max": [
        0.5765021443367004,
        0.5118787884712219
      ],
      "min": [
        0.3658634424209595,
        0.23708266019821167
      ],
      "type": "VEC2"
    },
    {
      "bufferView": 1,
      "byteOffset": 6643088,
      "componentType": 5126,
      "count": 24,
      "max": [
        0.5765021443367004,
        0.5118787884712219
      ],
      "min": [
        0.3658634424209595,
        0.23708266019821167
      ],
      "type": "VEC2"
    },
    {
      "bufferView": 1,
      "byteOffset": 6643280,
      "componentType": 5126,
      "count": 24,
      "max": [
        0.5765021443367004,
        0.5118787884712219
      ],
      "min": [
        0.3658634424209595,
        0.23708266019821167
      ],
      "type": "VEC2"
    },
    {
      "bufferView": 1,
      "byteOffset": 6643472,
      "componentType": 5126,
      "count": 24,
      "max": [
        0.5765021443367004,
        0.5118787884712219
      ],
      "min": [
        0.3658634424209595,
        0.23708266019821167
      ],
      "type": "VEC2"
    },
    {
      "bufferView": 1,
      "byteOffset": 6643664,
      "componentType": 5126,
      "count": 24,
      "max": [
        0.5765021443367004,
        0.5118787884712219
      ],
      "min": [
        0.3658634424209595,
        0.23708266019821167
      ],
      "type": "VEC2"
    },
    {
      "bufferView": 1,
      "byteOffset": 6643856,
      "componentType": 5126,
      "count": 24,
      "max": [
        0.5765021443367004,
        0.5118787884712219
      ],
      "min": [
        0.3658634424209595,
        0.23708266019821167
      ],
      "type": "VEC2"
    },
    {
      "bufferView": 1,
      "byteOffset": 6644048,
      "componentType": 5126,
      "count": 24,
      "max": [
        0.5765021443367004,
        0.5118787884712219
      ],
      "min": [
        0.3658634424209595,
        0.23708266019821167
      ],
      "type": "VEC2"
    },
    {
      "bufferView": 1,
      "byteOffset": 6644240,
      "componentType": 5126,
      "count": 24,
      "max": [
        0.5765021443367004,
        0.5118787884712219
      ],
      "min": [
        0.3658634424209595,
        0.23708266019821167
      ],
      "type": "VEC2"
    },
    {
      "bufferView": 1,
      "byteOffset": 6644432,
      "componentType": 5126,
      "count": 24,
      "max": [
        0.5765021443367004,
        0.5118787884712219
      ],
      "min": [
        0.3658634424209595,
        0.23708266019821167
      ],
      "type": "VEC2"
    },
    {
      "bufferView": 0,
      "byteOffset": 668868,
      "componentType": 5125,
      "count": 24,
      "type": "SCALAR"
    }
  ],
  "asset": {
    "extras": {
      "author": "G. (https://sketchfab.com/gunn24)",
      "license": "CC-BY-4.0 (http://creativecommons.org/licenses/by/4.0/)",
      "source": "https://sketchfab.com/3d-models/buildings-pack-1-34141fb0cf2442ca97caa616a13b792b",
      "title": "BUILDINGS PACK 1"
    },
    "generator": "Sketchfab-12.68.0",
    "version": "2.0"
  },
  "bufferViews": [
    {
      "buffer": 0,
      "byteLength": 668964,
      "name": "floatBufferViews",
      "target": 34963
    },
    {
      "buffer": 0,
      "byteLength": 6644624,
      "byteOffset": 668964,
      "byteStride": 8,
      "name": "floatBufferViews",
      "target": 34962
    },
    {
      "buffer": 0,
      "byteLength": 2075280,
      "byteOffset": 7313588,
      "byteStride": 12,
      "name": "floatBufferViews",
      "target": 34962
    }
  ],
  "buffers": [
    {
      "byteLength": 9388868,
      "uri": "scene.bin"
    }
  ],
  "extensionsUsed": [
    "KHR_materials_clearcoat"
  ],
  "images": [
    {
      "uri": "textures/Material_48_baseColor.jpeg"
    },
    {
      "uri": "textures/Material_48_metallicRoughness.png"
    },
    {
      "uri": "textures/Material_50_baseColor.jpeg"
    },
    {
      "uri": "textures/Material_50_metallicRoughness.png"
    },
    {
      "uri": "textures/Material_53_baseColor.png"
    },
    {
      "uri": "textures/Material_54_baseColor.jpeg"
    },
    {
      "uri": "textures/Material_55_baseColor.png"
    },
    {
      "uri": "textures/Material_56_baseColor.png"
    },
    {
      "uri": "textures/Material_57_baseColor.jpeg"
    },
    {
      "uri": "textures/Material_58_baseColor.png"
    },
    {
      "uri": "textures/Material_59_baseColor.png"
    }
  ],
  "materials": [
    {
      "doubleSided": true,
      "name": "Material_48",
      "occlusionTexture": {
        "index": 1
      },
      "pbrMetallicRoughness": {
        "baseColorTexture": {
          "index": 0
        },
        "metallicRoughnessTexture": {
          "index": 1
        }
      }
    },
    {
      "doubleSided": true,
      "extensions": {
        "KHR_materials_clearcoat": {
          "clearcoatFactor": 1.0,
          "clearcoatRoughnessFactor": 0.04
        }
      },
      "name": "Material_49",
      "pbrMetallicRoughness": {
        "baseColorTexture": {
          "index": 0
        }
      }
    },
    {
      "doubleSided": true,
      "name": "Material_50",
      "pbrMetallicRoughness": {
        "baseColorTexture": {
          "index": 2
        },
        "metallicRoughnessTexture": {
          "index": 3
        }
      }
    },
    {
      "doubleSided": true,
      "name": "Material_51",
      "pbrMetallicRoughness": {
        "baseColorTexture": {
          "index": 2
        }
      }
    },
    {
      "doubleSided": true,
      "name": "Material_52",
      "pbrMetallicRoughness": {
        "baseColorTexture": {
          "index": 2
        },
        "metallicFactor": 0.0,
        "roughnessFactor": 0.5
      }
    },
    {
      "doubleSided": true,
      "name": "Material_53",
      "pbrMetallicRoughness": {
        "baseColorTexture": {
          "index": 4
        },
        "metallicFactor": 0.0
      }
    },
    {
      "doubleSided": true,
      "name": "Material_54",
      "pbrMetallicRoughness": {
        "baseColorTexture": {
          "index": 5
        }
      }
    },
    {
      "doubleSided": true,
      "name": "Material_55",
      "pbrMetallicRoughness": {
        "baseColorTexture": {
          "index": 6
        },
        "metallicFactor": 0.0
      }
    },
    {
      "doubleSided": true,
      "name": "Material_56",
      "pbrMetallicRoughness": {
        "baseColorTexture": {
          "index": 7
        },
        "metallicFactor": 0.0,
        "roughnessFactor": 0.5
      }
    },
    {
      "doubleSided": true,
      "name": "Material_57",
      "pbrMetallicRoughness": {
        "baseColorTexture": {
          "index": 8
        },
        "metallicFactor": 0.0,
        "roughnessFactor": 0.8249546490819504
      }
    },
    {
      "doubleSided": true,
      "name": "Material_58",
      "pbrMetallicRoughness": {
        "baseColorTexture": {
          "index": 9
        },
        "metallicFactor": 0.0,
        "roughnessFactor": 0.5
      }
    },
    {
      "doubleSided": true,
      "name": "Material_59",
      "pbrMetallicRoughness": {
        "baseColorTexture": {
          "index": 10
        },
        "metallicFactor": 0.0
      }
    },
    {
      "doubleSided": true,
      "name": "Material_60"
    },
    {
      "doubleSided": true,
      "name": "Material_61",
      "pbrMetallicRoughness": {
        "baseColorTexture": {
          "index": 10
        },
        "metallicFactor": 0.0,
        "roughnessFactor": 0.9510286547784146
      }
    }
  ],
  "meshes": [
    {
      "name": "node_id5_Material_48_0",
      "primitives": [
        {
          "attributes": {
            "NORMAL": 1,
            "POSITION": 0,
            "TEXCOORD_0": 2,
            "TEXCOORD_1": 3,
            "TEXCOORD_2": 4,
            "TEXCOORD_3": 5,
            "TEXCOORD_4": 6,
            "TEXCOORD_5": 7,
            "TEXCOORD_6": 8,
            "TEXCOORD_7": 9,
            "TEXCOORD_8": 10,
            "TEXCOORD_9": 11
          },
          "indices": 12,
          "material": 0,
          "mode": 4
        }
      ]
    },
    {
      "name": "node_id5_Material_49_0",
      "primitives": [
        {
          "attributes": {
            "NORMAL": 14,
            "POSITION": 13,
            "TEXCOORD_0": 15,
            "TEXCOORD_1": 16,
            "TEXCOORD_2": 17,
            "TEXCOORD_3": 18,
            "TEXCOORD_4": 19,
            "TEXCOORD_5": 20,
            "TEXCOORD_6": 21,
            "TEXCOORD_7": 22,
            "TEXCOORD_8": 23,
            "TEXCOORD_9": 24
          },
          "indices": 25,
          "material": 1,
          "mode": 4
        }
      ]
    },
    {
      "name": "node_id8_Material_50_0",
      "primitives": [
        {
          "attributes": {
            "NORMAL": 27,
            "POSITION": 26,
            "TEXCOORD_0": 28,
            "TEXCOORD_1": 29,
            "TEXCOORD_2": 30,
            "TEXCOORD_3": 31,
            "TEXCOORD_4": 32,
            "TEXCOORD_5": 33,
            "TEXCOORD_6": 34,
            "TEXCOORD_7": 35,
            "TEXCOORD_8": 36
          },
          "indices": 37,
          "material": 2,
          "mode": 4
        }
      ]
    },
    {
      "name": "node_id8_Material_51_0",
      "primitives": [
        {
          "attributes": {
            "NORMAL": 39,
            "POSITION": 38,
            "TEXCOORD_0": 40,
            "TEXCOORD_1": 41,
            "TEXCOORD_2": 42,
            "TEXCOORD_3": 43,
            "TEXCOORD_4": 44,
            "TEXCOORD_5": 45,
            "TEXCOORD_6": 46,
            "TEXCOORD_7": 47,
            "TEXCOORD_8": 48,
            "TEXCOORD_9": 49
          },
          "indices": 50,
          "material": 3,
          "mode": 4
        }
      ]
    },
    {
      "name": "node_id11_Material_52_0",
      "primitives": [
        {
          "attributes": {
            "NORMAL": 52,
            "POSITION": 51,
            "TEXCOORD_0": 53,
            "TEXCOORD_1": 54,
            "TEXCOORD_2": 55,
            "TEXCOORD_3": 56,
            "TEXCOORD_4": 57,
            "TEXCOORD_5": 58,
            "TEXCOORD_6": 59,
            "TEXCOORD_7": 60,
            "TEXCOORD_8": 61,
            "TEXCOORD_9": 62
          },
          "indices": 63,
          "material": 4,
          "mode": 4
        }
      ]
    },
    {
      "name": "node_id11_Material_53_0",
      "primitives": [
        {
          "attributes": {
            "NORMAL": 65,
            "POSITION": 64,
            "TEXCOORD_0": 66,
            "TEXCOORD_1": 67,
            "TEXCOORD_2": 68,
            "TEXCOORD_3": 69,
            "TEXCOORD_4": 70,
            "TEXCOORD_5": 71,
            "TEXCOORD_6": 72,
            "TEXCOORD_7": 73,
            "TEXCOORD_8": 74,
            "TEXCOORD_9": 75
          },
          "indices": 76,
          "material": 5,
          "mode": 4
        }
      ]
    },
    {
      "name": "node_id14_Material_54_0",
      "primitives": [
        {
          "attributes": {
            "NORMAL": 78,
            "POSITION": 77,
            "TEXCOORD_0": 79,
            "TEXCOORD_1": 80,
            "TEXCOORD_2": 81,
            "TEXCOORD_3": 82,
            "TEXCOORD_4": 83,
            "TEXCOORD_5": 84,
            "TEXCOORD_6": 85,
            "TEXCOORD_7": 86,
            "TEXCOORD_8": 87
          },
          "indices": 88,
          "material": 6,
          "mode": 4
        }
      ]
    },
    {
      "name": "node_id14_Material_55_0",
      "primitives": [
        {
          "attributes": {
            "NORMAL": 90,
            "POSITION": 89,
            "TEXCOORD_0": 91,
            "TEXCOORD_1": 92,
            "TEXCOORD_2": 93,
            "TEXCOORD_3": 94,
            "TEXCOORD_4": 95,
            "TEXCOORD_5": 96,
            "TEXCOORD_6": 97,
            "TEXCOORD_7": 98,
            "TEXCOORD_8": 99,
            "TEXCOORD_9": 100
          },
          "indices": 101,
          "material": 7,
          "mode": 4
        }
      ]
    },
    {
      "name": "node_id17_Material_56_0",
      "primitives": [
        {
          "attributes": {
            "NORMAL": 103,
            "POSITION": 102,
            "TEXCOORD_0": 104,
            "TEXCOORD_1": 105,
            "TEXCOORD_2": 106,
            "TEXCOORD_3": 107,
            "TEXCOORD_4": 108,
            "TEXCOORD_5": 109,
            "TEXCOORD_6": 110,
            "TEXCOORD_7": 111,
            "TEXCOORD_8": 112
          },
          "indices": 113,
          "material": 8,
          "mode": 4
        }
      ]
    },
    {
      "name": "node_id19_Material_57_0",
      "primitives": [
        {
          "attributes": {
            "NORMAL": 115,
            "POSITION": 114,
            "TEXCOORD_0": 116,
            "TEXCOORD_1": 117,
            "TEXCOORD_2": 118,
            "TEXCOORD_3": 119,
            "TEXCOORD_4": 120,
            "TEXCOORD_5": 121,
            "TEXCOORD_6": 122,
            "TEXCOORD_7": 123,
            "TEXCOORD_8": 124,
            "TEXCOORD_9": 125
          },
          "indices": 126,
          "material": 9,
          "mode": 4
        }
      ]
    },
    {
      "name": "node_id19_Material_58_0",
      "primitives": [
        {
          "attributes": {
            "NORMAL": 128,
            "POSITION": 127,
            "TEXCOORD_0": 129,
            "TEXCOORD_1": 130,
            "TEXCOORD_2": 131,
            "TEXCOORD_3": 132,
            "TEXCOORD_4": 133,
            "TEXCOORD_5": 134,
            "TEXCOORD_6": 135,
            "TEXCOORD_7": 136,
            "TEXCOORD_8": 137,
            "TEXCOORD_9": 138
          },
          "indices": 139,
          "material": 10,
          "mode": 4
        }
      ]
    },
    {
      "name": "node_id22_Material_59_0",
      "primitives": [
        {
          "attributes": {
            "NORMAL": 141,
            "POSITION": 140,
            "TEXCOORD_0": 142,
            "TEXCOORD_1": 143,
            "TEXCOORD_2": 144,
            "TEXCOORD_3": 145,
            "TEXCOORD_4": 146,
            "TEXCOORD_5": 147,
            "TEXCOORD_6": 148,
            "TEXCOORD_7": 149,
            "TEXCOORD_8": 150,
            "TEXCOORD_9": 151
          },
          "indices": 152,
          "material": 11,
          "mode": 4
        }
      ]
    },
    {
      "name": "node_id22_Material_60_0",
      "primitives": [
        {
          "attributes": {
            "NORMAL": 154,
            "POSITION": 153,
            "TEXCOORD_0": 155,
            "TEXCOORD_1": 156,
            "TEXCOORD_2": 157,
            "TEXCOORD_3": 158,
            "TEXCOORD_4": 159,
            "TEXCOORD_5": 160,
            "TEXCOORD_6": 161,
            "TEXCOORD_7": 162,
            "TEXCOORD_8": 163,
            "TEXCOORD_9": 164
          },
          "indices": 165,
          "material": 12,
          "mode": 4
        }
      ]
    },
    {
      "name": "node_id22_Material_61_0",
      "primitives": [
        {
          "attributes": {
            "NORMAL": 167,
            "POSITION": 166,
            "TEXCOORD_0": 168,
            "TEXCOORD_1": 169,
            "TEXCOORD_2": 170,
            "TEXCOORD_3": 171,
            "TEXCOORD_4": 172,
            "TEXCOORD_5": 173,
            "TEXCOORD_6": 174,
            "TEXCOORD_7": 175,
            "TEXCOORD_8": 176,
            "TEXCOORD_9": 177
          },
          "indices": 178,
          "material": 13,
          "mode": 4
        }
      ]
    }
  ],
  "nodes": [
    {
      "children": [
        1
      ],
      "matrix": [
        25.952510833740234,
        0.0,
        0.0,
        0.0,
        0.0,
        5.762615014890445e-15,
        -25.952510833740234,
        0.0,
        0.0,
        25.952510833740234,
        5.762615014890445e-15,
        0.0,
        -3.17934158999833e-08,
        7.160994019983489e-10,
        8.364552384065862e-10,
        1.0
      ],
      "name": "Sketchfab_model"
    },
    {
      "children": [
        2
      ],
      "matrix": [
        1.0,
        0.0,
        0.0,
        0.0,
        0.0,
        0.0,
        1.0,
        0.0,
        0.0,
        -1.0,
        0.0,
        0.0,
        0.0,
        0.0,
        0.0,
        1.0
      ],
      "name": "9fbd5a08effc4566a923034f9a914b7d.fbx"
    },
    {
      "children": [
        3
      ],
      "name": "RootNode"
    },
    {
      "children": [
        4,
        8,
        12,
        16,
        20,
        22,
        26
      ],
      "name": "root"
    },
    {
      "children": [
        5,
        6
      ],
      "matrix": [
        2.856843824232771e-08,
        0.0,
        -0.1597662717103933,
        0.0,
        6.983609009619092e-09,
        0.15976628661155684,
        1.2487667185508489e-15,
        0.0,
        0.15976627171039315,
        -6.983608358268498e-09,
        2.856843824232771e-08,
        0.0,
        -0.17485547065734863,
        -0.18533805012702942,
        0.9836874604225159,
        1.0
      ],
      "name": "node_id5"
    },
    {
      "mesh": 0,
      "name": "node_id5_Material_48_0"
    },
    {
      "children": [
        7
      ],
      "matrix": [
        1.0,
        -3.1554436208840458e-30,
        -5.293955920339375e-23,
        0.0,
        3.1554436208840458e-30,
        1.0,
        -5.250939017477925e-24,
        0.0,
        5.293955920339375e-23,
        5.250939017477925e-24,
        1.0,
        0.0,
        0.0,
        0.0,
        0.0,
        1.0
      ],
      "name": "node_id5"
    },
    {
      "mesh": 1,
      "name": "node_id5_Material_49_0"
    },
    {
      "children": [
        9,
        10
      ],
      "matrix": [
        3.952543895676104e-08,
        -7.313674898533401e-25,
        -0.22104226052760723,
        0.0,
        9.66206735362651e-09,
        0.22104227542877175,
        1.7277123937411679e-15,
        0.0,
        0.22104226052760703,
        -9.662066702276043e-09,
        3.952543895676104e-08,
        0.0,
        -0.16980208456516266,
        -0.14522986114025116,
        0.7565292119979858,
        1.0
      ],
      "name": "node_id8"
    },
    {
      "mesh": 2,
      "name": "node_id8_Material_50_0"
    },
    {
      "children": [
        11
      ],
      "matrix": [
        1.0,
        0.0,
        2.646977960169688e-23,
        0.0,
        1.389989761857281e-46,
        1.0,
        -5.2512328503414285e-24,
        0.0,
        -2.646977960169688e-23,
        5.2512328503414285e-24,
        1.0,
        0.0,
        0.0,
        0.0,
        0.0,
        1.0
      ],
      "name": "node_id8"
    },
    {
      "mesh": 3,
      "name": "node_id8_Material_51_0"
    },
    {
      "children": [
        13,
        14
      ],
      "matrix": [
        3.524068858140512e-08,
        0.0,
        -0.19708019495010062,
        0.0,
        8.61465186595048e-09,
        0.19708020985126476,
        1.540419949613269e-15,
        0.0,
        0.19708019495010046,
        -8.614651214600002e-09,
        3.524068858140512e-08,
        0.0,
        -0.1714787632226944,
        -0.15691421926021576,
        0.8367435336112976,
        1.0
      ],
      "name": "node_id11"
    },
    {
      "mesh": 4,
      "name": "node_id11_Material_52_0"
    },
    {
      "children": [
        15
      ],
      "matrix": [
        1.0,
        -3.1554436208840465e-30,
        2.646977960169688e-23,
        0.0,
        3.1554436208840465e-30,
        1.0,
        1.3663090243446625e-24,
        0.0,
        -2.646977960169688e-23,
        -1.3663090243446625e-24,
        1.0,
        0.0,
        0.0,
        0.0,
        0.0,
        1.0
      ],
      "name": "node_id11"
    },
    {
      "mesh": 5,
      "name": "node_id11_Material_53_0"
    },
    {
      "children": [
        17,
        18
      ],
      "matrix": [
        1.8093373875121885e-08,
        0.0,
        -0.10118547081947164,
        0.0,
        4.42295788143592e-09,
        0.10118547827005377,
        7.908865761123251e-16,
        0.0,
        0.10118547081947155,
        -4.422957555760758e-09,
        1.8093373875121885e-08,
        0.0,
        -0.18093553185462952,
        -0.20707310736179352,
        0.5765538811683655,
        1.0
      ],
      "name": "node_id14"
    },
    {
      "mesh": 6,
      "name": "node_id14_Material_54_0"
    },
    {
      "children": [
        19
      ],
      "matrix": [
        1.0,
        -3.155443620884048e-30,
        -5.293955920339378e-23,
        0.0,
        3.155443620884048e-30,
        1.0,
        1.3659723633151633e-24,
        0.0,
        5.293955920339378e-23,
        -1.3659723633151633e-24,
        1.0,
        0.0,
        0.0,
        0.0,
        0.0,
        1.0
      ],
      "name": "node_id14"
    },
    {
      "mesh": 7,
      "name": "node_id14_Material_55_0"
    },
    {
      "children": [
        21
      ],
      "matrix": [
        3.8728835301053693e-08,
        7.166273773202526e-25,
        -0.21658733487128862,
        0.0,
        9.46733601146408e-09,
        0.21658734977245309,
        1.6928916801989423e-15,
        0.0,
        0.21658733487128842,
        -9.467335360113634e-09,
        3.8728835301053693e-08,
        0.0,
        -0.17038729786872864,
        -0.14709490537643433,
        0.3823774456977844,
        1.0
      ],
      "name": "node_id17"
    },
    {
      "mesh": 8,
      "name": "node_id17_Material_56_0"
    },
    {
      "children": [
        23,
        24
      ],
      "matrix": [
        4.618394203717323e-08,
        0.0,
        -0.2582792937755543,
        0.0,
        1.1289749994168364e-08,
        0.2582793235778806,
        2.0187648479549747e-15,
        0.0,
        0.2582792937755541,
        -1.1289748691467403e-08,
        4.618394203717323e-08,
        0.0,
        -0.17038729786872864,
        -0.13101166486740112,
        0.2003343552350998,
        1.0
      ],
      "name": "node_id19"
    },
    {
      "mesh": 9,
      "name": "node_id19_Material_57_0"
    },
    {
      "children": [
        25
      ],
      "matrix": [
        1.0,
        -1.5777218104420233e-30,
        -2.646977960169688e-23,
        0.0,
        1.5777218104420236e-30,
        1.0,
        1.460119633667119e-23,
        0.0,
        2.646977960169688e-23,
        -1.460119633667119e-23,
        1.0,
        0.0,
        0.0,
        0.0,
        0.0,
        1.0
      ],
      "name": "node_id19"
    },
    {
      "mesh": 10,
      "name": "node_id19_Material_58_0"
    },
    {
      "children": [
        27,
        28,
        30
      ],
      "matrix": [
        3.246749712276753e-08,
        0.0,
        -0.09078569710254089,
        0.0,
        3.968369958575478e-09,
        0.09078570455312719,
        1.4191997675556493e-15,
        0.0,
        0.09078569710254081,
        -3.968369632900447e-09,
        3.246749712276753e-08,
        0.0,
        -0.17038729786872864,
        -0.255765438079834,
        0.05293518304824829,
        1.0
      ],
      "name": "node_id22"
    },
    {
      "mesh": 11,
      "name": "node_id22_Material_59_0"
    },
    {
      "children": [
        29
      ],
      "matrix": [
        1.0,
        -3.1554436208840458e-30,
        -1.058791184067875e-22,
        0.0,
        3.1554436208840465e-30,
        1.0,
        5.4643639334905326e-24,
        0.0,
        1.058791184067875e-22,
        -5.4643639334905326e-24,
        1.0,
        0.0,
        0.0,
        0.0,
        0.0,
        1.0
      ],
      "name": "node_id22"
    },
    {
      "mesh": 12,
      "name": "node_id22_Material_60_0"
    },
    {
      "children": [
        31
      ],
      "matrix": [
        1.0,
        -3.1554436208840458e-30,
        -1.058791184067875e-22,
        0.0,
        3.1554436208840465e-30,
        1.0,
        5.4643639334905326e-24,
        0.0,
        1.058791184067875e-22,
        -5.4643639334905326e-24,
        1.0,
        0.0,
        0.0,
        0.0,
        0.0,
        1.0
      ],
      "name": "node_id22"
    },
    {
      "mesh": 13,
      "name": "node_id22_Material_61_0"
    }
  ],
  "samplers": [
    {
      "magFilter": 9729,
      "minFilter": 9987,
      "wrapS": 10497,
      "wrapT": 10497
    }
  ],
  "scene": 0,
  "scenes": [
    {
      "name": "Sketchfab_Scene",
      "nodes": [
        0
      ]
    }
  ],
  "textures": [
    {
      "sampler": 0,
      "source": 0
    },
    {
      "sampler": 0,
      "source": 1
    },
    {
      "sampler": 0,
      "source": 2
    },
    {
      "sampler": 0,
      "source": 3
    },
    {
      "sampler": 0,
      "source": 4
    },
    {
      "sampler": 0,
      "source": 5
    },
    {
      "sampler": 0,
      "source": 6
    },
    {
      "sampler": 0,
      "source": 7
    },
    {
      "sampler": 0,
      "source": 8
    },
    {
      "sampler": 0,
      "source": 9
    },
    {
      "sampler": 0,
      "source": 10
    }
  ]
}
