{
  "accessors": [
    {
      "bufferView": 2,
      "componentType": 5126,
      "count": 4551,
      "max": [
        22.753915786743164,
        55.018035888671875,
        8.816442489624023
      ],
      "min": [
        -22.753915786743164,
        -55.9898681640625,
        -5.719464302062988
      ],
      "type": "VEC3"
    },
    {
      "bufferView": 2,
      "byteOffset": 54612,
      "componentType": 5126,
      "count": 4551,
      "max": [
        1.0,
        0.9839984178543091,
        0.9999769926071167
      ],
      "min": [
        -1.0,
        -0.9999933242797852,
        -0.999973475933075
      ],
      "type": "VEC3"
    },
    {
      "bufferView": 3,
      "componentType": 5126,
      "count": 4551,
      "max": [
        1.0,
        0.9998138546943665,
        0.9999999403953552,
        1.0
      ],
      "min": [
        -1.0,
        -0.9985863566398621,
        -0.999690592288971,
        1.0
      ],
      "type": "VEC4"
    },
    {
      "bufferView": 1,
      "componentType": 5126,
      "count": 4551,
      "max": [
        0.9600574970245361,
        0.9799999594688416
      ],
      "min": [
        0.019999999552965164,
        0.019999999552965164
      ],
      "type": "VEC2"
    },
    {
      "bufferView": 0,
      "componentType": 5125,
      "count": 23232,
      "type": "SCALAR"
    }
  ],
  "asset": {
    "extras": {
      "author": "jose908abt (https://sketchfab.com/jose908abt)",
      "license": "CC-BY-4.0 (http://creativecommons.org/licenses/by/4.0/)",
      "source": "https://sketchfab.com/3d-models/surfboard-tabla-de-surf-91185ba35ece4a3792bbda7a205c830a",
      "title": "Surfboard / Tabla de surf"
    },
    "generator": "Sketchfab-12.66.0",
    "version": "2.0"
  },
  "bufferViews": [
    {
      "buffer": 0,
      "byteLength": 92928,
      "name": "floatBufferViews",
      "target": 34963
    },
    {
      "buffer": 0,
      "byteLength": 36408,
      "byteOffset": 92928,
      "byteStride": 8,
      "name": "floatBufferViews",
      "target": 34962
    },
    {
      "buffer": 0,
      "byteLength": 109224,
      "byteOffset": 129336,
      "byteStride": 12,
      "name": "floatBufferViews",
      "target": 34962
    },
    {
      "buffer": 0,
      "byteLength": 72816,
      "byteOffset": 238560,
      "byteStride": 16,
      "name": "floatBufferViews",
      "target": 34962
    }
  ],
  "buffers": [
    {
      "byteLength": 311376,
      "uri": "scene.bin"
    }
  ],
  "images": [
    {
      "uri": "textures/Tabla_de_surf_baseColor.jpeg"
    },
    {
      "uri": "textures/Tabla_de_surf_metallicRoughness.png"
    },
    {
      "uri": "textures/Tabla_de_surf_normal.png"
    }
  ],
  "materials": [
    {
      "doubleSided": true,
      "name": "Tabla_de_surf",
      "normalTexture": {
        "index": 2
      },
      "pbrMetallicRoughness": {
        "baseColorTexture": {
          "index": 0
        },
        "metallicRoughnessTexture": {
          "index": 1
        },
        "roughnessFactor": 0.7906859684021734
      }
    }
  ],
  "meshes": [
    {
      "name": "Tabla_Tabla de surf_0",
      "primitives": [
        {
          "attributes": {
            "NORMAL": 1,
            "POSITION": 0,
            "TANGENT": 2,
            "TEXCOORD_0": 3
          },
          "indices": 4,
          "material": 0,
          "mode": 4
        }
      ]
    }
  ],
  "nodes": [
    {
      "children": [
        1
      ],
      "matrix": [
        1.0,
        0.0,
        0.0,
        0.0,
        0.0,
        2.220446049250313e-16,
        -1.0,
        0.0,
        0.0,
        1.0,
        2.220446049250313e-16,
        0.0,
        0.0,
        0.0,
        0.0,
        1.0
      ],
      "name": "Sketchfab_model"
    },
    {
      "children": [
        2
      ],
      "matrix": [
        1.0,
        0.0,
        0.0,
        0.0,
        0.0,
        0.0,
        1.0,
        0.0,
        0.0,
        -1.0,
        0.0,
        0.0,
        0.0,
        0.0,
        0.0,
        1.0
      ],
      "name": "b6d60271bc3e4454a6463d899f6db762.fbx"
    },
    {
      "children": [
        3
      ],
      "name": "RootNode"
    },
    {
      "children": [
        4
      ],
      "matrix": [
        1.6704436540603638,
        0.0,
        0.0,
        0.0,
        0.0,
        2.290665864944456,
        1.0012818505776358e-07,
        0.0,
        0.0,
        -1.1102692458085719e-07,
        2.5399999618530247,
        0.0,
        -70.39443969726563,
        162.97610473632813,
        -18.169282913208008,
        1.0
      ],
      "name": "Tabla"
    },
    {
      "mesh": 0,
      "name": "Tabla_Tabla de surf_0"
    }
  ],
  "samplers": [
    {
      "magFilter": 9729,
      "minFilter": 9987,
      "wrapS": 10497,
      "wrapT": 10497
    }
  ],
  "scene": 0,
  "scenes": [
    {
      "name": "Sketchfab_Scene",
      "nodes": [
        0
      ]
    }
  ],
  "textures": [
    {
      "sampler": 0,
      "source": 0
    },
    {
      "sampler": 0,
      "source": 1
    },
    {
      "sampler": 0,
      "source": 2
    }
  ]
}
